<svg width="422" height="387" viewBox="0 0 422 387" fill="none" xmlns="http://www.w3.org/2000/svg">
<path d="M233.611 386.943C337.438 386.943 421.607 383.372 421.607 378.967C421.607 374.563 337.438 370.992 233.611 370.992C129.784 370.992 45.6152 374.563 45.6152 378.967C45.6152 383.372 129.784 386.943 233.611 386.943Z" fill="#D3DCE2"/>
<path d="M340.76 125.706V352.204C340.76 365.292 330.158 375.894 317.07 375.894H158.394C155.971 375.894 153.631 375.528 151.437 374.849C147.384 373.606 143.802 371.319 141.002 368.3C140.417 367.663 139.864 367.005 139.362 366.305C136.427 362.357 134.693 357.479 134.693 352.204V125.706C134.693 115.042 141.734 106.027 151.437 103.071C153.631 102.382 155.971 102.027 158.394 102.027H317.07C320.903 102.027 324.517 102.935 327.713 104.544C327.839 104.607 327.964 104.669 328.09 104.742C335.621 108.701 340.76 116.598 340.76 125.706Z" fill="#002BDC"/>
<path d="M169.755 350.888H305.704C313.033 350.888 318.976 344.946 318.976 337.617V115.33C318.976 108.001 313.033 102.059 305.704 102.059H169.755C162.426 102.059 156.483 108.001 156.483 115.33V337.615C156.483 344.946 162.425 350.888 169.755 350.888Z" fill="white"/>
<path d="M260.625 102.027C260.625 89.378 250.378 79.1311 237.729 79.1311C225.08 79.1311 214.822 89.378 214.822 102.027H191.623V121.738C191.623 126.668 195.624 130.669 200.554 130.669H274.904C279.834 130.669 283.835 126.668 283.835 121.738V102.027H260.625ZM237.729 90.2554C244.236 90.2554 249.511 95.5303 249.511 102.027H225.957C225.957 95.5303 231.232 90.2554 237.729 90.2554Z" fill="#B1B1B1"/>
<path d="M283.836 102.027V121.737C283.836 126.667 279.835 130.668 274.905 130.668H262.893C267.823 130.668 271.823 126.667 271.823 121.737V102.027H283.836Z" fill="#9B9A9A"/>
<path d="M204.301 149.889H183.733C176.664 149.889 170.915 155.639 170.915 162.707V183.274C170.915 190.342 176.665 196.091 183.733 196.091H204.301C211.368 196.091 217.118 190.341 217.118 183.274V162.707C217.118 155.639 211.369 149.889 204.301 149.889ZM183.733 154.067H204.301C209.065 154.067 212.94 157.943 212.94 162.707V183.274C212.94 188.038 209.065 191.913 204.301 191.913H183.733C178.968 191.913 175.093 188.038 175.093 183.274V162.707C175.093 157.943 178.968 154.067 183.733 154.067Z" fill="#9EAFAE"/>
<path d="M297.57 165.534H230.547C228.864 165.534 227.5 164.17 227.5 162.487C227.5 160.805 228.864 159.439 230.547 159.439H297.57C299.252 159.439 300.617 160.803 300.617 162.487C300.617 164.17 299.252 165.534 297.57 165.534Z" fill="#9EAFAE"/>
<path d="M276.157 176.038H230.547C228.864 176.038 227.5 174.674 227.5 172.991C227.5 171.308 228.864 169.944 230.547 169.944H276.157C277.839 169.944 279.204 171.308 279.204 172.991C279.204 174.674 277.839 176.038 276.157 176.038Z" fill="#9EAFAE"/>
<path d="M262.316 186.541H230.546C228.863 186.541 227.499 185.177 227.499 183.494C227.499 181.811 228.863 180.447 230.546 180.447H262.316C263.998 180.447 265.362 181.811 265.362 183.494C265.362 185.177 263.998 186.541 262.316 186.541Z" fill="#9EAFAE"/>
<path d="M192.579 186.283C192.425 186.283 192.271 186.275 192.117 186.257C190.897 186.122 189.799 185.456 189.114 184.438L179.864 170.693C178.576 168.778 179.084 166.182 180.998 164.893C182.911 163.606 185.508 164.112 186.797 166.027L193.297 175.686L221.366 149.207C223.042 147.623 225.686 147.698 227.272 149.379C228.855 151.057 228.778 153.701 227.099 155.285L195.448 185.144C194.666 185.88 193.64 186.283 192.579 186.283Z" fill="#9EAFAE"/>
<path d="M204.301 216.217H183.733C176.664 216.217 170.915 221.967 170.915 229.036V249.603C170.915 256.671 176.665 262.42 183.733 262.42H204.301C211.368 262.42 217.118 256.67 217.118 249.603V229.036C217.118 221.967 211.369 216.217 204.301 216.217ZM183.733 220.395H204.301C209.065 220.395 212.94 224.271 212.94 229.036V249.603C212.94 254.367 209.065 258.242 204.301 258.242H183.733C178.968 258.242 175.093 254.366 175.093 249.603V229.036C175.093 224.271 178.968 220.395 183.733 220.395Z" fill="#9EAFAE"/>
<path d="M297.57 231.862H230.547C228.864 231.862 227.5 230.498 227.5 228.816C227.5 227.133 228.864 225.768 230.547 225.768H297.57C299.252 225.768 300.617 227.132 300.617 228.816C300.617 230.498 299.252 231.862 297.57 231.862Z" fill="#9EAFAE"/>
<path d="M276.157 242.366H230.547C228.864 242.366 227.5 241.002 227.5 239.319C227.5 237.636 228.864 236.272 230.547 236.272H276.157C277.839 236.272 279.204 237.636 279.204 239.319C279.204 241.002 277.839 242.366 276.157 242.366Z" fill="#9EAFAE"/>
<path d="M262.317 252.869H230.547C228.864 252.869 227.5 251.505 227.5 249.822C227.5 248.139 228.864 246.775 230.547 246.775H262.317C263.999 246.775 265.363 248.139 265.363 249.822C265.363 251.505 263.999 252.869 262.317 252.869Z" fill="#9EAFAE"/>
<path d="M204.301 282.564H183.733C176.664 282.564 170.915 288.315 170.915 295.382V315.949C170.915 323.017 176.665 328.767 183.733 328.767H204.301C211.368 328.767 217.118 323.017 217.118 315.949V295.382C217.118 288.314 211.369 282.564 204.301 282.564ZM183.733 286.743H204.301C209.065 286.743 212.94 290.618 212.94 295.382V315.949C212.94 320.713 209.065 324.589 204.301 324.589H183.733C178.968 324.589 175.093 320.713 175.093 315.949V295.382C175.093 290.618 178.968 286.743 183.733 286.743Z" fill="#9EAFAE"/>
<path d="M297.57 298.209H230.547C228.864 298.209 227.5 296.845 227.5 295.162C227.5 293.48 228.864 292.115 230.547 292.115H297.57C299.252 292.115 300.617 293.48 300.617 295.162C300.617 296.844 299.252 298.209 297.57 298.209Z" fill="#9EAFAE"/>
<path d="M276.157 308.713H230.547C228.864 308.713 227.5 307.348 227.5 305.666C227.5 303.983 228.864 302.619 230.547 302.619H276.157C277.839 302.619 279.204 303.983 279.204 305.666C279.204 307.347 277.839 308.713 276.157 308.713Z" fill="#9EAFAE"/>
<path d="M262.316 319.216H230.546C228.863 319.216 227.499 317.852 227.499 316.168C227.499 314.485 228.863 313.121 230.546 313.121H262.316C263.998 313.121 265.362 314.485 265.362 316.168C265.362 317.851 263.998 319.216 262.316 319.216Z" fill="#9EAFAE"/>
<path opacity="0.1" d="M340.763 125.706V352.203C340.763 365.291 330.16 375.893 317.072 375.893H158.397C155.973 375.893 153.634 375.528 151.44 374.849C147.387 373.606 143.805 371.318 141.005 368.299C140.42 367.662 139.867 367.004 139.365 366.304L157.122 341.685L289.121 158.755L318.973 117.381L319.454 116.723L328.092 104.742C335.623 108.7 340.763 116.597 340.763 125.706Z" fill="#282849"/>
<path d="M327.369 102.027H270.268V90.0599C270.268 74.2916 283.051 61.5085 298.819 61.5085C314.587 61.5085 327.37 74.2916 327.37 90.0599V102.027H327.369Z" fill="#F5BA01"/>
<path d="M298.729 141.227L288.417 154.202C287.557 155.284 287.758 156.863 288.861 157.696C289.839 158.434 291.214 158.339 292.081 157.471L296.175 153.377C296.779 152.773 297.706 152.621 298.459 153.026C300.546 154.146 305.112 155.477 309.501 149.256L298.729 141.227Z" fill="#F9C8B9"/>
<path d="M327.369 98.7638H310.871V116.317C310.871 121.581 308.921 126.658 305.396 130.568L295.931 141.013C295.046 141.99 295.086 143.484 296.015 144.417C298.122 146.532 302.006 150.123 306.047 152.288C307.089 152.846 308.385 152.543 309.115 151.614L323.454 133.38L323.449 133.377C325.889 130.5 327.368 126.782 327.368 122.715V98.7638H327.369Z" fill="#F5BA01"/>
<path d="M282.499 102.273L278.885 102.252C278.885 100.675 278.885 98.5127 278.916 96.1103C278.916 95.6194 278.927 95.1075 278.937 94.5853C278.958 93.0393 278.989 91.4203 279.041 89.8326C279.041 89.561 279.052 89.2999 279.062 89.0388C279.073 88.8299 279.073 88.6209 279.083 88.412C279.094 88.0987 279.104 87.7749 279.115 87.4615C279.135 86.9497 279.156 86.4379 279.188 85.9365C279.198 85.6858 279.209 85.4351 279.219 85.1949C279.229 84.9546 279.25 84.7144 279.261 84.4741C279.271 84.2339 279.292 83.9936 279.303 83.7638C279.334 83.3043 279.365 82.8551 279.397 82.4268C279.418 82.2075 279.428 81.9986 279.449 81.7897C279.543 80.766 279.647 79.8573 279.762 79.1261C279.762 79.1261 279.783 79.8573 279.846 81.0794C279.856 81.1734 279.856 81.2674 279.867 81.3719C279.877 81.5912 279.888 81.8314 279.898 82.0926C279.908 82.2075 279.919 82.3328 279.919 82.4582C279.929 82.6357 279.94 82.8238 279.95 83.0222C279.961 83.1893 279.971 83.3669 279.982 83.5549C279.992 83.743 280.013 83.931 280.023 84.1294C280.044 84.3906 280.055 84.6517 280.076 84.9233C280.096 85.1949 280.107 85.4664 280.138 85.7485C280.138 85.8947 280.149 86.0305 280.17 86.1767C280.232 87.0332 280.305 87.942 280.389 88.8821C280.41 89.1223 280.431 89.373 280.452 89.6237C280.504 90.1669 280.556 90.71 280.619 91.2636C280.66 91.7441 280.713 92.2142 280.775 92.6946C280.796 92.9244 280.828 93.1543 280.859 93.384C280.995 94.5121 281.141 95.6507 281.319 96.737C281.35 96.9668 281.392 97.1966 281.433 97.4264C281.507 97.8964 281.59 98.3456 281.674 98.7947C281.914 100.08 282.196 101.26 282.499 102.273Z" fill="#0478A6"/>
<path d="M304.302 53.4347V61.3523C304.302 64.5277 301.733 67.0972 298.557 67.0972C295.382 67.0972 292.812 64.5277 292.812 61.3523V53.4347H304.302Z" fill="#F9C8B9"/>
<path d="M304.302 53.4347V58.3231C302.788 59.0856 301.075 59.5035 299.257 59.5035H292.812V53.4347H304.302Z" fill="#EDA898"/>
<path d="M322.786 0.436282C327.738 -0.590498 333.051 0.211708 337.473 2.66742C345.002 6.84661 351.189 14.9815 353.372 23.2699C355.665 31.974 353.821 41.3132 355.737 50.1082C357.117 56.4402 360.456 62.1591 365.173 66.5649C369.834 70.9175 375.444 74.4387 378.817 80.0008C384.964 90.1412 381.209 104.285 370.537 109.656C364.266 112.812 356.494 112.389 350.25 109.179C340.098 103.96 334.943 92.4945 332.661 81.834C328.919 64.3547 341.512 46.2225 334.512 29.0775C332.13 23.2427 326.457 18.3209 320.166 18.7011C317.906 18.8379 315.728 19.6286 313.472 19.824C311.216 20.0193 308.654 19.4375 307.435 17.5291C306.464 16.0082 306.598 13.9829 307.333 12.3346C309.641 7.15475 316.904 1.77956 322.365 0.528203C322.506 0.495822 322.646 0.465529 322.786 0.436282Z" fill="#4C5456"/>
<path d="M307.918 52.7879C320.263 52.7879 330.272 42.7796 330.272 30.4337C330.272 18.0879 320.263 8.07959 307.918 8.07959C295.572 8.07959 285.563 18.0879 285.563 30.4337C285.563 42.7796 295.572 52.7879 307.918 52.7879Z" fill="#4C5456"/>
<path d="M295.119 57.061C286.537 57.061 279.58 50.1043 279.58 41.5224V27.5329C279.58 25.2464 281.433 23.3934 283.72 23.3934H306.517C308.803 23.3934 310.656 25.2464 310.656 27.5329V41.5224C310.656 50.1043 303.699 57.061 295.119 57.061Z" fill="#F9C8B9"/>
<path d="M315.253 45.319H309.857V32.5234H315.253C318.787 32.5234 321.651 35.3876 321.651 38.9212C321.651 42.4549 318.786 45.319 315.253 45.319Z" fill="#F9C8B9"/>
<path d="M287.361 30.5327C295.017 30.5327 301.223 25.1252 301.223 18.4547C301.223 11.7842 295.017 6.37671 287.361 6.37671C279.705 6.37671 273.499 11.7842 273.499 18.4547C273.499 25.1252 279.705 30.5327 287.361 30.5327Z" fill="#4C5456"/>
<path d="M308.432 35.2225C317.058 35.2225 324.05 29.6391 324.05 22.7517C324.05 15.8643 317.058 10.281 308.432 10.281C299.807 10.281 292.814 15.8643 292.814 22.7517C292.814 29.6391 299.807 35.2225 308.432 35.2225Z" fill="#4C5456"/>
<path d="M349.272 330.451L341.687 334.752C340.084 335.66 339.522 337.697 340.431 339.299L352.74 361.007C354.035 363.291 356.937 364.093 359.221 362.797C360.928 361.83 361.862 359.918 361.581 357.976C360.872 353.08 359.329 343.687 357.122 337.312L349.272 330.451Z" fill="#051028"/>
<path d="M386.033 239.805C386.033 239.805 396.08 276.211 398.799 294.612C399.299 297.99 398.407 301.415 396.357 304.148C390.088 312.509 374.973 331.219 358.78 340.596C357.787 341.171 356.565 341.159 355.563 340.6C353.701 339.562 350.846 337.134 348.819 331.564C348.381 330.357 348.718 329.004 349.647 328.119C354.379 323.602 369.175 309.199 375.986 299.331C377.257 297.489 377.615 295.176 376.946 293.04C373.977 283.555 364.898 255.886 357.219 246.491C357.219 246.491 367.781 239.761 386.033 239.805Z" fill="#DBAC4D"/>
<path d="M359.004 364.251V372.97C359.004 374.812 360.498 376.306 362.34 376.306H387.295C389.921 376.306 392.05 374.177 392.05 371.551C392.05 369.59 390.847 367.834 389.02 367.12C384.412 365.322 375.478 362.031 368.846 360.806L359.004 364.251Z" fill="#051028"/>
<path d="M343.557 251.595C345.493 258.981 351.963 283.662 355.761 298.151C357.652 305.368 358.609 312.794 358.609 320.254L358.166 362.741C358.153 364.003 359.125 365.049 360.384 365.133C363.301 365.33 368.527 365.217 372.747 362.607C373.407 362.198 373.836 361.498 373.886 360.723L377.293 308.61C377.293 308.61 377.909 265.951 371.488 246.356C371.063 245.059 369.999 244.085 368.677 243.743C363.984 242.529 352.466 240.542 344.761 247.581C343.649 248.599 343.175 250.136 343.557 251.595Z" fill="#F5BA01"/>
<path d="M382.653 257.392C364.917 261.716 352.487 258.27 345.906 255.293C342.553 253.768 340.433 250.404 340.495 246.717C340.819 227.362 343.775 207.547 345.958 195.388C347.4 187.408 354.43 181.59 362.535 181.872C362.65 181.872 362.755 181.882 362.859 181.882C369.617 182.164 375.508 186.646 377.608 193.069C379.645 199.284 381.588 206.795 383.311 214.409C384.011 217.491 384.679 220.583 385.306 223.622C385.996 227.006 386.643 230.307 387.239 233.42C387.646 235.572 388.022 237.629 388.377 239.562C388.858 242.267 389.286 244.722 389.651 246.842C390.466 251.658 387.395 256.242 382.653 257.392Z" fill="#042BCD"/>
<path d="M420.865 192.192L408.979 183.902C407.735 183.034 406.007 183.677 405.631 185.146L394.67 227.971C394.407 228.997 394.922 230.063 395.89 230.495L408.205 235.99C409.429 236.536 410.85 235.855 411.192 234.559L421.725 194.528C421.956 193.645 421.612 192.713 420.865 192.192Z" fill="#051028"/>
<path d="M419.77 192.11L401.868 190.442C400.663 190.33 399.557 191.109 399.258 192.281L388.792 233.283C388.417 234.75 389.447 236.204 390.956 236.339L408.339 237.891C409.527 237.998 410.621 237.233 410.931 236.081L421.917 195.196C422.311 193.724 421.287 192.251 419.77 192.11Z" fill="#051028"/>
<path d="M408.217 214.006C410.133 217.325 408.586 221.805 404.761 224.013C400.937 226.221 396.283 225.321 394.367 222.003C392.451 218.685 393.998 214.205 397.823 211.996C401.648 209.788 406.302 210.688 408.217 214.006Z" fill="#F9C8B9"/>
<path d="M361.716 205.863L373.341 219.665C374.884 221.496 377.502 221.989 379.603 220.843L391.787 214.203C393.177 213.446 394.912 213.661 396.037 214.776C398.073 216.793 400.887 220.474 400.948 225.447C400.966 226.843 400.171 228.129 398.918 228.746L379.262 238.427C375.446 240.306 370.854 239.505 367.9 236.444L349.152 217.021C346.997 214.788 346.153 211.536 347.141 208.595C347.162 208.532 347.184 208.469 347.206 208.406C349.382 202.244 357.507 200.864 361.716 205.863Z" fill="#1A45F6"/>
<path d="M400.953 225.447C400.964 226.847 400.17 228.131 398.916 228.748L379.258 238.431C375.446 240.311 370.85 239.506 367.904 236.446L349.155 217.017C347.003 214.793 346.157 211.534 347.139 208.599C347.149 208.578 347.16 208.546 347.17 208.525C347.567 209.737 348.246 210.855 349.155 211.795L367.904 231.223C370.85 234.284 375.446 235.088 379.258 233.208L398.916 223.525C399.575 223.201 400.118 222.689 400.462 222.063C400.765 223.107 400.943 224.235 400.953 225.447Z" fill="#0023B3"/>
<path d="M361.594 128.701C361.594 128.701 342.408 129.336 339.221 145.657C339.221 145.657 333.031 166.939 353.139 178.559L359.371 149.835H379.724L361.594 128.701Z" fill="#4C5456"/>
<path d="M357.683 164.721H348.934C345.602 164.721 342.9 162.02 342.9 158.688C342.9 155.356 345.602 152.654 348.934 152.654H357.683V164.721Z" fill="#F9C8B9"/>
<path d="M364.322 169.567V182.447C364.322 185.591 361.783 188.139 358.639 188.139C355.506 188.139 352.957 185.591 352.957 182.447V169.567H364.322Z" fill="#F9C8B9"/>
<path d="M364.322 169.567V180.869C359.444 179.94 355.328 176.879 352.957 172.691V169.567H364.322Z" fill="#EDA898"/>
<path d="M367.49 178.039C358.266 178.039 350.787 170.561 350.787 161.336V142.785H384.192V161.336C384.192 170.56 376.715 178.039 367.49 178.039Z" fill="#F9C8B9"/>
<path d="M368.644 149.305C379.586 149.305 388.457 144.426 388.457 138.407C388.457 132.388 379.586 127.508 368.644 127.508C357.702 127.508 348.831 132.388 348.831 138.407C348.831 144.426 357.702 149.305 368.644 149.305Z" fill="#4C5456"/>
<path d="M99.4818 326.16C99.4818 326.489 99.4369 326.834 99.3471 327.163L97.117 335.724L87.3736 373.036C87.1041 374.069 86.446 374.937 85.5174 375.491C84.9043 375.85 84.2002 376.03 83.5119 376.03C83.1682 376.03 82.8235 375.985 82.4945 375.91L81.4019 375.626C79.2763 375.057 77.9894 372.871 78.5587 370.746L87.7036 335.724L90.5019 324.994H99.3022C99.4223 325.368 99.4818 325.756 99.4818 326.16Z" fill="#9B9A9A"/>
<path d="M130.104 375.626L129.026 375.895C128.697 375.985 128.352 376.03 128.009 376.03C127.305 376.03 126.616 375.85 126.003 375.491C125.076 374.937 124.416 374.069 124.147 373.036L114.403 335.724L112.173 327.163C111.979 326.43 112.008 325.681 112.218 324.993H121.019L123.817 335.723L132.962 370.746C133.531 372.872 132.244 375.057 130.104 375.626Z" fill="#9B9A9A"/>
<path d="M132.14 328.451V332.268C132.14 334.183 130.599 335.725 128.683 335.725H82.8256C80.9245 335.725 79.3828 334.183 79.3828 332.268V328.451C79.3828 326.535 80.9245 324.994 82.8256 324.994H128.684C130.599 324.994 132.14 326.534 132.14 328.451Z" fill="#B1B1B1"/>
<path d="M17.7296 243.434L9.1978 241.638C7.39492 241.257 5.62548 242.412 5.24527 244.215L0.103009 268.634C-0.438061 271.203 1.20604 273.725 3.7756 274.266C5.69546 274.67 7.66128 273.855 8.73611 272.214C11.4456 268.076 16.5064 260.013 19.0718 253.774L17.7296 243.434Z" fill="#051028"/>
<path d="M105.283 199.819C105.283 199.819 88.7164 233.759 78.575 249.351C76.7126 252.214 73.7774 254.19 70.4328 254.883C60.1984 257.001 36.4853 261.02 18.139 257.331C17.0141 257.104 16.1064 256.287 15.7251 255.204C15.0169 253.195 14.4832 249.484 16.6516 243.967C17.1206 242.772 18.2696 241.983 19.5523 241.932C26.089 241.679 46.7134 240.677 58.3506 237.788C60.5233 237.249 62.322 235.751 63.2349 233.708C67.2877 224.633 78.7975 197.883 79.2602 185.758C79.2602 185.758 91.6306 187.704 105.283 199.819Z" fill="#0A1F75"/>
<path d="M91.1318 312.938V321.656C91.1318 323.499 92.6255 324.993 94.4681 324.993H119.423C122.049 324.993 124.178 322.864 124.178 320.238C124.178 318.276 122.975 316.52 121.148 315.807C116.54 314.008 107.606 310.718 100.973 309.493L91.1318 312.938Z" fill="#051028"/>
<path d="M75.6862 200.283C77.6228 207.669 84.0916 232.349 87.8895 246.839C89.7812 254.056 90.738 261.482 90.738 268.942L90.2951 311.429C90.2815 312.691 91.254 313.737 92.5127 313.821C95.4301 314.018 100.656 313.905 104.876 311.294C105.536 310.886 105.965 310.186 106.015 309.411L109.422 257.298C109.422 257.298 110.038 214.639 103.617 195.044C103.192 193.746 102.128 192.773 100.805 192.43C96.1121 191.217 84.594 189.23 76.8885 196.269C75.7781 197.285 75.3039 198.824 75.6862 200.283Z" fill="#002BDC"/>
<path d="M179.322 159.985L177.578 164.32L175.405 169.751L140.8 155.89C138.303 154.888 137.029 152.161 137.781 149.634C137.823 149.508 137.875 149.373 137.917 149.247L138.032 148.976C138.095 148.829 138.157 148.694 138.23 148.558C139.411 146.197 142.22 145.121 144.717 146.114L179.322 159.985Z" fill="#ED4A71"/>
<path d="M147.987 147.42L144.06 157.197L140.801 155.891C138.158 154.836 136.884 151.838 137.939 149.206L138.033 148.976C139.088 146.334 142.075 145.059 144.718 146.114L147.987 147.42Z" fill="#4C5456"/>
<path d="M186.688 169.439L183.847 169.522L175.407 169.752L177.58 164.32L179.324 159.986L185.257 165.981L187.263 167.997C187.775 168.529 187.419 169.418 186.688 169.439Z" fill="#F9C8B9"/>
<path d="M145.128 154.511L144.052 157.196L175.395 169.758L176.471 167.073L145.128 154.511Z" fill="#DD4571"/>
<path d="M145.135 154.512L144.059 157.196L140.8 155.891C139.547 155.389 138.596 154.449 138.064 153.311C138.012 153.196 137.959 153.081 137.917 152.966C137.782 152.611 137.677 152.245 137.625 151.869C137.541 151.336 137.552 150.783 137.646 150.229C137.709 149.885 137.803 149.54 137.938 149.206L138.032 148.976C138.095 148.83 138.158 148.694 138.231 148.558C138.283 148.443 138.346 148.339 138.408 148.234C138.534 148.025 138.67 147.827 138.816 147.639C138.816 147.639 138.826 147.628 138.826 147.618C138.868 147.587 138.889 147.555 138.931 147.524C138.471 149.905 139.735 152.339 142.064 153.279L145.135 154.512Z" fill="#33393A"/>
<path d="M186.689 169.437L183.848 169.521L175.408 169.751L176.484 167.066L176.672 167.139L185.112 166.91L186.156 166.878L187.264 167.996C187.776 168.528 187.42 169.416 186.689 169.437Z" fill="#EDA898"/>
<path d="M186.687 169.44L183.845 169.523L183.626 169.126C183.229 168.406 183.302 167.57 183.73 166.954C183.981 166.567 184.357 166.264 184.838 166.118L185.255 165.982L186.154 166.88L187.261 167.998C187.773 168.53 187.418 169.419 186.687 169.44Z" fill="#4C5456"/>
<path d="M143.551 158.614C142.421 158.161 141.871 156.877 142.323 155.747L145.535 147.729C145.989 146.599 147.272 146.049 148.403 146.503C149.533 146.956 150.082 148.24 149.63 149.37L146.418 157.388C145.965 158.518 144.681 159.067 143.551 158.614Z" fill="#B1B1B1"/>
<path d="M147.464 154.762L146.419 157.384C145.96 158.523 144.685 159.066 143.547 158.617C142.419 158.157 141.875 156.872 142.325 155.744L143.38 153.112C142.93 154.24 143.474 155.525 144.602 155.984C145.74 156.434 147.004 155.88 147.464 154.762Z" fill="#9B9A9A"/>
<path d="M186.687 169.437L183.845 169.521L183.626 169.124C183.229 168.403 183.302 167.568 183.73 166.951L185.109 166.91L186.154 166.878L187.261 167.996C187.773 168.528 187.418 169.417 186.687 169.437Z" fill="#33393A"/>
<path d="M160.568 157.558C161.907 160.985 159.717 165.043 155.677 166.621C151.636 168.2 147.275 166.7 145.937 163.273C144.598 159.845 146.789 155.787 150.829 154.209C154.869 152.631 159.23 154.131 160.568 157.558Z" fill="#F9C8B9"/>
<path d="M117.202 144.307C117.202 144.307 120.785 151.794 125.814 157.431C128.536 160.483 132.902 161.477 136.713 159.993C139.997 158.714 143.982 157.016 146.482 155.437C147.832 154.586 149.59 154.662 150.811 155.69C152.569 157.169 154.535 159.989 154.448 165.175C154.425 166.573 153.64 167.853 152.391 168.486C148.869 170.273 141.06 174.048 134.424 175.928C130.833 176.946 126.983 176.43 123.801 174.477C119.505 171.841 113.097 167.371 108.981 162.037C108.981 162.037 109.102 153.359 117.202 144.307Z" fill="#DBAC4D"/>
<path d="M119.801 199.386C119.738 199.95 119.644 200.504 119.508 201.037C118.129 206.656 112.875 210.573 106.942 210.281C96.9148 209.779 82.1032 207.837 72.3368 201.172C68.1377 198.31 66.1949 193.119 67.3857 188.178C69.433 179.676 73.6216 164.655 80.0873 152.079C83.2313 145.979 86.9185 140.464 91.1489 136.547C92.8933 134.938 94.9719 133.747 97.2386 133.037C97.3326 133.006 97.4266 132.975 97.5206 132.954C107.391 129.945 117.513 136.881 118.505 147.138C119.842 160.738 121.472 183.238 119.801 199.386Z" fill="#F5BA01"/>
<path d="M107.283 199.082C106.567 202.469 102.834 204.549 98.9467 203.727C95.0589 202.905 92.4872 199.492 93.2038 196.105C93.9203 192.718 97.6525 190.638 101.54 191.46C105.428 192.282 108 195.695 107.283 199.082Z" fill="#F9C8B9"/>
<path d="M89.3522 144.128C85.2837 146.273 77.74 151.168 71.6473 160.327C67.9861 165.831 67.6644 172.951 70.8074 178.767C74.1416 184.936 80.2814 192.925 91.3974 199.457C92.6466 200.191 94.1466 200.347 95.516 199.874C97.251 199.275 99.6785 198.217 101.628 196.527C104.004 194.467 103.835 190.716 101.26 188.91C97.1517 186.027 90.451 180.687 86.7534 174.301C85.0518 171.363 85.6075 167.647 88.0872 165.328C90.4782 163.093 93.8646 160.216 97.5967 157.931C102.186 155.123 102.724 148.47 98.4219 145.24C97.7617 144.745 97.0326 144.296 96.2263 143.915C94.0421 142.882 91.4903 143 89.3522 144.128Z" fill="#DBAC4D"/>
<path d="M101.68 196.474C101.669 196.495 101.648 196.505 101.627 196.526C99.6844 198.218 97.2507 199.273 95.5167 199.879C94.1484 200.349 92.6443 200.193 91.4013 199.461C80.2874 192.923 74.1455 184.932 70.8134 178.769C67.6694 172.951 67.9827 165.827 71.6491 160.322C77.3418 151.768 84.3089 146.921 88.5183 144.581C84.6013 147.339 79.8173 151.58 75.6914 157.774C72.0355 163.279 71.7117 170.402 74.8558 176.22C78.1879 182.383 84.3297 190.374 95.4436 196.913C96.6971 197.644 98.1908 197.801 99.5696 197.32C100.196 197.101 100.917 196.829 101.68 196.474Z" fill="#C79634"/>
<path d="M132.657 87.2582C132.657 87.2582 121.951 79.2622 108.62 79.9412C100.433 80.358 93.5528 86.2836 91.6099 94.2482C88.5818 106.658 87.1226 126.48 106.862 130.816L132.657 87.2582Z" fill="#4C5456"/>
<path d="M117.2 122.884L115.101 134.332L114.119 139.721C113.565 142.761 110.651 144.777 107.611 144.213C104.561 143.659 102.556 140.745 103.109 137.695L105.251 125.986L106.191 120.868L117.2 122.884Z" fill="#F9C8B9"/>
<path d="M117.2 122.884L115.101 134.332C110.63 133.193 107.048 130.049 105.251 125.986L106.191 120.868L117.2 122.884Z" fill="#EDA898"/>
<path d="M120.181 132.99L119.223 132.895C111.089 132.09 105.148 124.845 105.952 116.712L107.517 100.885C107.931 96.6888 111.669 93.6241 115.864 94.0388L138.68 96.294L136.365 119.718C135.559 127.852 128.314 133.793 120.181 132.99Z" fill="#F9C8B9"/>
<path d="M131.816 99.6037C139.125 99.6037 145.05 94.6246 145.05 88.4825C145.05 82.3405 139.125 77.3613 131.816 77.3613C124.508 77.3613 118.583 82.3405 118.583 88.4825C118.583 94.6246 124.508 99.6037 131.816 99.6037Z" fill="#4C5456"/>
<path d="M134.451 103.339C131.056 102.862 127.902 105.105 127.179 108.4L125.753 108.2C125.966 104.833 123.55 101.809 120.156 101.333C116.74 100.854 113.568 103.129 112.872 106.457C110.282 106.477 96.711 106.859 92.583 112.48L93.3904 113.073C97.1205 107.993 109.954 107.506 112.738 107.461C112.566 110.798 114.974 113.78 118.343 114.253C121.738 114.729 124.893 112.487 125.614 109.191L127.04 109.391C126.828 112.757 129.243 115.781 132.638 116.257C136.2 116.757 139.505 114.265 140.004 110.704C140.504 107.142 138.013 103.838 134.451 103.339ZM118.482 113.262C115.467 112.839 113.358 110.041 113.781 107.026C114.204 104.01 117.001 101.901 120.017 102.324C123.032 102.747 125.141 105.545 124.718 108.56C124.295 111.575 121.498 113.685 118.482 113.262ZM132.778 115.267C129.762 114.844 127.653 112.047 128.076 109.031C128.499 106.016 131.297 103.907 134.312 104.33C137.328 104.753 139.437 107.55 139.014 110.566C138.591 113.58 135.793 115.689 132.778 115.267Z" fill="#051028"/>
<path d="M110.549 119.616L100.892 117.412C98.0355 116.76 96.2472 113.915 96.9001 111.058C97.5518 108.201 100.397 106.413 103.254 107.065L112.911 109.269L110.549 119.616Z" fill="#F9C8B9"/>
<path d="M419.818 128.641H417.655V126.479C417.655 125.49 416.853 124.688 415.864 124.688C414.875 124.688 414.073 125.49 414.073 126.479V128.641H411.911C410.921 128.641 410.119 129.443 410.119 130.433C410.119 131.422 410.921 132.224 411.911 132.224H414.073V134.386C414.073 135.375 414.875 136.178 415.864 136.178C416.853 136.178 417.655 135.375 417.655 134.386V132.224H419.818C420.807 132.224 421.609 131.422 421.609 130.433C421.609 129.443 420.807 128.641 419.818 128.641Z" fill="#D3DCE2"/>
<path d="M217.369 14.7025H215.207V12.5403C215.207 11.5511 214.405 10.7489 213.416 10.7489C212.427 10.7489 211.624 11.5511 211.624 12.5403V14.7025H209.462C208.473 14.7025 207.671 15.5047 207.671 16.4939C207.671 17.483 208.473 18.2852 209.462 18.2852H211.624V20.4474C211.624 21.4366 212.427 22.2388 213.416 22.2388C214.405 22.2388 215.207 21.4366 215.207 20.4474V18.2852H217.369C218.359 18.2852 219.161 17.483 219.161 16.4939C219.161 15.5047 218.359 14.7025 217.369 14.7025Z" fill="#D3DCE2"/>
<path d="M69.8079 69.827H67.6457V67.6648C67.6457 66.6756 66.8435 65.8734 65.8543 65.8734C64.8652 65.8734 64.0629 66.6756 64.0629 67.6648V69.827H61.9008C60.9116 69.827 60.1094 70.6292 60.1094 71.6184C60.1094 72.6075 60.9116 73.4098 61.9008 73.4098H64.0629V75.5719C64.0629 76.5611 64.8652 77.3633 65.8543 77.3633C66.8435 77.3633 67.6457 76.5611 67.6457 75.5719V73.4098H69.8079C70.7971 73.4098 71.5993 72.6075 71.5993 71.6184C71.5993 70.6281 70.7971 69.827 69.8079 69.827Z" fill="#D3DCE2"/>
<path d="M402.988 110.689H400.18V107.881C400.18 106.596 399.138 105.555 397.854 105.555C396.569 105.555 395.527 106.596 395.527 107.881V110.689H392.72C391.435 110.689 390.394 111.73 390.394 113.015C390.394 114.3 391.435 115.341 392.72 115.341H395.527V118.149C395.527 119.433 396.569 120.475 397.854 120.475C399.138 120.475 400.18 119.433 400.18 118.149V115.341H402.988C404.272 115.341 405.314 114.3 405.314 113.015C405.314 111.73 404.272 110.689 402.988 110.689Z" fill="#D3DCE2"/>
<path d="M33.9514 216.658H31.1437V213.85C31.1437 212.566 30.1023 211.524 28.8175 211.524C27.5327 211.524 26.4913 212.566 26.4913 213.85V216.658H23.6836C22.3988 216.658 21.3574 217.699 21.3574 218.984C21.3574 220.269 22.3988 221.31 23.6836 221.31H26.4913V224.118C26.4913 225.403 27.5327 226.444 28.8175 226.444C30.1023 226.444 31.1437 225.403 31.1437 224.118V221.31H33.9514C35.2362 221.31 36.2776 220.269 36.2776 218.984C36.2766 217.699 35.2352 216.658 33.9514 216.658Z" fill="#D3DCE2"/>
<path d="M85.8274 56.8014H83.0197V53.9937C83.0197 52.7089 81.9783 51.6675 80.6935 51.6675C79.4087 51.6675 78.3673 52.7089 78.3673 53.9937V56.8014H75.5596C74.2748 56.8014 73.2334 57.8428 73.2334 59.1276C73.2334 60.4123 74.2748 61.4538 75.5596 61.4538H78.3673V64.2615C78.3673 65.5463 79.4087 66.5877 80.6935 66.5877C81.9783 66.5877 83.0197 65.5463 83.0197 64.2615V61.4538H85.8274C87.1122 61.4538 88.1536 60.4123 88.1536 59.1276C88.1536 57.8428 87.1122 56.8014 85.8274 56.8014Z" fill="#D3DCE2"/>
<path d="M398.698 333.397H395.891V330.589C395.891 329.305 394.849 328.263 393.565 328.263C392.28 328.263 391.238 329.305 391.238 330.589V333.397H388.431C387.146 333.397 386.104 334.438 386.104 335.723C386.104 337.008 387.146 338.049 388.431 338.049H391.238V340.857C391.238 342.142 392.28 343.183 393.565 343.183C394.849 343.183 395.891 342.142 395.891 340.857V338.049H398.698C399.983 338.049 401.025 337.008 401.025 335.723C401.025 334.438 399.983 333.397 398.698 333.397Z" fill="#D3DCE2"/>
</svg>
