<svg width="30" height="33" viewBox="0 0 30 33" fill="none" xmlns="http://www.w3.org/2000/svg">
<path d="M25.043 16.7499H17.3908" stroke="#002BDC" stroke-width="1.5" stroke-linecap="round" stroke-linejoin="round"/>
<path d="M17.3916 9.79346H13.9134" stroke="#002BDC" stroke-width="1.5" stroke-linecap="round" stroke-linejoin="round"/>
<path d="M25.043 13.2717L17.3908 13.2717" stroke="#002BDC" stroke-width="1.5" stroke-linecap="round" stroke-linejoin="round"/>
<path d="M20.1738 3.53259L25.0434 3.53259" stroke="#002BDC" stroke-width="1.5" stroke-linecap="round" stroke-linejoin="round"/>
<path d="M20.1738 6.31519L25.0434 6.31519" stroke="#002BDC" stroke-width="1.5" stroke-linecap="round" stroke-linejoin="round"/>
<path d="M21.5651 3.53259C23.6521 3.53259 25.3912 8.05431 20.1738 8.74996L23.6521 11.1847" stroke="#002BDC" stroke-width="1.5" stroke-linecap="round" stroke-linejoin="round"/>
<path d="M10.4346 6.31521L16.3476 0.750016M10.4346 6.31521H16.3476V0.750016M10.4346 6.31521V10.1413M16.3476 0.750016H28.5214V7.01085V13.2717V19.5325" stroke="#002BDC" stroke-width="1.5" stroke-linecap="round" stroke-linejoin="round"/>
<path d="M5.08789 22.1429L9.20645 19.7197C10.0073 19.2582 12.0208 18.4735 13.6682 19.0274L19.846 21.1046C20.4569 21.3353 21.5868 22.1431 21.2189 23.5277C20.8757 24.2201 20.1893 24.9124 18.4732 24.2201L13.6682 22.4892" stroke="#002BDC" stroke-width="1.5" stroke-linecap="round" stroke-linejoin="round"/>
<path d="M8.86328 28.3738C9.54971 28.0276 10.5793 27.3353 12.9818 28.0276C14.0652 28.3398 15.7275 29.4123 17.7868 28.3738L28.0832 22.8351C29.7306 21.9489 29.2273 20.6196 28.7696 20.0657C28.0832 19.2349 26.9392 19.4888 26.3671 19.7196L21.2189 22.4889" stroke="#002BDC" stroke-width="1.5" stroke-linecap="round" stroke-linejoin="round"/>
<path d="M19.5029 20.7582L21.9054 19.5993C22.4774 19.3686 23.6215 19.1147 24.3079 19.9455" stroke="#002BDC" stroke-width="1.5" stroke-linecap="round" stroke-linejoin="round"/>
<rect x="1.02071" y="0.27349" width="3.31536" height="10.8922" rx="1.25" transform="matrix(0.864159 -0.503219 0.496788 0.867872 0.00278764 22.545)" stroke="#002BDC" stroke-width="1.5"/>
<path d="M2.78223 13.9673L9.04307 9.09778L15.3039 13.9673" stroke="#002BDC" stroke-width="1.5" stroke-linecap="round" stroke-linejoin="round"/>
<path d="M4.09668 12.75V7.75H6.09668V11.25" stroke="#002BDC" stroke-width="1.5" stroke-linejoin="round"/>
<path d="M7.65137 20.2282V14.663H11.1296V18.8369" stroke="#002BDC" stroke-width="1.5" stroke-linecap="round" stroke-linejoin="round"/>
<path d="M5.09668 11.75V21.75M14.0967 18.6466V12.75" stroke="#002BDC" stroke-width="1.5"/>
</svg>
